<?xml version="1.0" standalone="no"?>
<!DOCTYPE svg PUBLIC "-//W3C//DTD SVG 20010904//EN"
 "http://www.w3.org/TR/2001/REC-SVG-20010904/DTD/svg10.dtd">
<svg version="1.0" xmlns="http://www.w3.org/2000/svg"
 width="499.000000pt" height="500.000000pt" viewBox="0 0 499.000000 500.000000"
 preserveAspectRatio="xMidYMid meet">
<metadata>
Created by potrace 1.16, written by Peter Selinger 2001-2019
</metadata>
<g transform="translate(0.000000,500.000000) scale(0.100000,-0.100000)"
fill="#000000" stroke="none">
<path d="M2560 4821 c-19 -4 -46 -13 -59 -20 -19 -10 -161 -128 -181 -151 -3
-3 -43 -39 -90 -80 -46 -41 -92 -82 -100 -90 -9 -8 -32 -28 -51 -44 -19 -16
-54 -48 -79 -70 -25 -23 -79 -71 -120 -107 -206 -183 -425 -376 -590 -524 -31
-27 -76 -68 -101 -89 -140 -124 -396 -352 -410 -365 -9 -9 -29 -28 -45 -42
-16 -14 -68 -59 -114 -100 -47 -40 -101 -87 -119 -104 -101 -88 -140 -141
-156 -212 -9 -46 19 -135 58 -179 51 -59 83 -68 247 -74 l145 -5 5 -1050 c6
-1167 1 -1088 74 -1152 76 -67 -28 -64 1757 -61 l1614 3 47 23 c26 13 59 39
73 58 58 76 55 14 55 1144 l0 1040 138 0 c128 0 142 2 189 25 109 54 154 186
101 293 -23 44 -95 114 -349 337 -71 63 -224 200 -229 205 -3 3 -61 54 -130
115 -69 60 -127 113 -130 116 -3 4 -24 23 -48 43 -43 35 -179 156 -211 186 -9
9 -52 47 -96 85 -44 39 -82 72 -85 75 -9 9 -102 92 -184 165 -44 39 -107 95
-141 125 -33 30 -92 82 -130 115 -38 33 -96 85 -130 115 -245 221 -263 235
-327 250 -48 11 -48 11 -98 1z m102 -566 c24 -22 84 -76 133 -120 50 -44 92
-82 95 -85 3 -3 43 -39 90 -80 47 -41 100 -88 119 -105 19 -16 39 -35 45 -41
10 -9 391 -348 495 -440 25 -21 72 -64 106 -94 33 -30 97 -86 140 -125 44 -38
98 -87 120 -107 l40 -37 -1439 -1 -1439 0 65 60 c36 33 85 76 109 96 24 20 46
39 49 43 3 4 104 94 225 201 121 107 222 197 225 200 3 3 43 39 90 80 97 85
132 116 204 181 28 26 71 63 96 84 25 21 47 40 50 44 3 4 66 60 140 126 74 66
146 130 160 142 14 13 28 22 32 21 3 -2 26 -21 50 -43z m1303 -2595 l0 -905
-337 -3 -338 -2 0 342 c0 380 -10 487 -56 598 -76 187 -218 317 -425 392 -56
20 -83 23 -204 22 -120 0 -149 -3 -205 -23 -106 -38 -190 -91 -266 -166 -80
-79 -129 -157 -170 -271 l-29 -79 -5 -405 -5 -405 -337 -3 -338 -2 0 910 0
910 1358 -2 1357 -3 0 -905z m-1239 -34 c47 -30 76 -67 92 -115 8 -24 12 -146
12 -397 l0 -364 -225 0 -225 0 0 359 c0 242 4 369 11 392 18 51 77 119 123
141 59 28 158 20 212 -16z"/>
</g>
</svg>
