<?xml version="1.0" standalone="no"?>
<!DOCTYPE svg PUBLIC "-//W3C//DTD SVG 20010904//EN"
 "http://www.w3.org/TR/2001/REC-SVG-20010904/DTD/svg10.dtd">
<svg version="1.0" xmlns="http://www.w3.org/2000/svg"
 width="1417.000000pt" height="1417.000000pt" viewBox="0 0 1417.000000 1417.000000"
 preserveAspectRatio="xMidYMid meet">
<metadata>
Created by potrace 1.16, written by Peter Selinger 2001-2019
</metadata>
<g transform="translate(0.000000,1417.000000) scale(0.100000,-0.100000)"
fill="#000000" stroke="none">
<path d="M9575 12461 c-11 -5 -45 -14 -75 -21 -236 -51 -472 -240 -586 -469
-106 -213 -98 -126 -102 -1108 l-3 -852 -527 -4 c-600 -4 -580 -2 -762 -90
-58 -28 -108 -53 -111 -54 -4 -2 -33 36 -65 84 -93 139 -322 361 -449 435
-123 72 -280 143 -375 170 -216 60 -121 57 -2222 58 l-1927 0 -53 -23 c-72
-32 -112 -68 -153 -138 l-35 -60 0 -3105 0 -3105 25 -49 c37 -73 79 -115 147
-150 l61 -30 1871 0 c1798 0 1989 -3 2066 -29 14 -5 45 -15 70 -22 189 -54
398 -226 507 -418 72 -127 102 -236 118 -440 8 -97 21 -203 30 -235 20 -77 82
-208 132 -282 50 -72 191 -209 264 -256 60 -37 179 -90 249 -108 25 -7 55 -16
68 -21 13 -5 966 -9 2261 -9 l2237 0 50 24 c63 31 129 97 160 160 l24 50 0
3708 0 3707 -26 48 c-49 89 -124 151 -206 171 -33 9 -270 12 -827 12 l-781 0
0 824 c0 889 0 894 -54 1040 -40 110 -105 213 -190 304 -132 139 -240 205
-436 265 -50 16 -99 21 -210 23 -80 2 -154 -1 -165 -5z m224 -615 c99 -27 164
-87 202 -186 16 -43 19 -77 19 -225 l0 -175 -300 0 -300 0 0 170 c0 148 3 176
21 226 35 93 106 159 204 190 53 17 89 17 154 0z m221 -2846 l0 -1650 -145
-290 c-80 -160 -149 -290 -153 -290 -4 0 -74 132 -155 293 l-147 292 0 1641
c0 902 3 1644 7 1647 3 4 138 7 300 7 l293 0 0 -1650z m-3710 977 c76 -25 83
-28 190 -80 210 -102 389 -318 462 -556 l23 -76 3 -2497 c1 -1374 -1 -2498 -5
-2498 -5 0 -35 19 -68 41 -88 59 -266 144 -375 178 -231 72 -177 70 -2102 70
l-1698 1 0 2720 0 2720 1758 -2 c1659 -3 1760 -4 1812 -21z m5548 -3304 l2
-2723 -2027 -1 c-2078 0 -2051 0 -2195 -35 l-28 -6 0 2629 0 2630 31 61 c19
39 46 74 72 94 86 67 45 63 595 66 l502 3 0 -1073 c0 -829 3 -1083 13 -1118 7
-25 155 -328 329 -675 293 -585 319 -633 367 -678 68 -64 109 -80 202 -80 92
-1 166 31 223 94 25 26 144 256 361 690 l325 650 0 1093 c0 601 3 1096 7 1099
3 4 279 6 612 5 l606 -3 3 -2722z m2 -3633 l0 -300 -1996 0 c-1511 0 -2007 3
-2038 12 -90 26 -173 105 -202 191 -20 61 -15 177 10 225 37 71 101 127 181
159 23 9 524 12 2038 12 l2007 1 0 -300z"/>
<path d="M4813 8790 c-124 -25 -226 -141 -240 -271 -12 -119 57 -243 164 -295
l58 -29 674 -3 c760 -3 732 -5 818 72 96 87 128 218 83 338 -25 66 -116 159
-178 180 -44 14 -1309 22 -1379 8z"/>
<path d="M3557 7565 c-59 -21 -128 -85 -162 -150 -26 -50 -30 -70 -30 -135 0
-65 4 -85 30 -135 35 -69 113 -138 177 -157 63 -19 2553 -19 2615 0 64 19 157
110 183 178 59 158 -17 337 -168 394 -51 20 -81 20 -1330 20 -1055 -1 -1284
-3 -1315 -15z"/>
<path d="M3551 6348 c-136 -52 -216 -208 -181 -353 25 -104 127 -203 233 -225
80 -16 2539 -9 2589 8 62 21 153 114 178 180 45 120 13 251 -82 337 -90 80 13
75 -1412 74 -1262 0 -1271 0 -1325 -21z"/>
<path d="M8403 5143 c-57 -19 -132 -89 -163 -149 -21 -41 -25 -63 -25 -134 0
-109 32 -181 106 -240 94 -74 13 -70 1401 -70 951 0 1254 3 1290 13 140 37
244 190 224 333 -14 109 -91 206 -192 243 -54 21 -66 21 -1327 20 -1102 0
-1278 -3 -1314 -16z"/>
</g>
</svg>
