<?xml version="1.0" standalone="no"?>
<!DOCTYPE svg PUBLIC "-//W3C//DTD SVG 20010904//EN"
 "http://www.w3.org/TR/2001/REC-SVG-20010904/DTD/svg10.dtd">
<svg version="1.0" xmlns="http://www.w3.org/2000/svg"
 width="481.000000pt" height="518.000000pt" viewBox="0 0 481.000000 518.000000"
 preserveAspectRatio="xMidYMid meet">
<metadata>
Created by potrace 1.16, written by Peter Selinger 2001-2019
</metadata>
<g transform="translate(0.000000,518.000000) scale(0.100000,-0.100000)"
fill="#000000" stroke="none">
<path d="M1040 4953 c-146 -23 -251 -65 -347 -138 -130 -97 -207 -213 -260
-390 -17 -57 -18 -155 -18 -1795 l0 -1735 23 -75 c42 -131 97 -224 183 -310
97 -94 232 -167 355 -189 36 -7 257 -11 588 -11 494 0 534 2 571 19 111 51
163 179 119 293 -23 58 -59 96 -119 124 l-50 24 -510 0 -510 0 -51 24 c-58 27
-106 80 -123 135 -8 28 -11 486 -11 1712 0 1605 1 1676 19 1715 22 49 92 111
140 124 22 6 269 10 632 10 l597 0 5 -407 c4 -388 6 -411 27 -478 67 -208 198
-359 386 -445 122 -55 166 -60 593 -60 l391 0 0 -143 c0 -134 2 -146 26 -195
67 -134 232 -168 352 -72 80 63 84 85 80 432 -2 240 -6 298 -18 320 -28 50
-1461 1478 -1489 1484 -14 3 -44 12 -66 20 -34 12 -160 14 -765 13 -399 -1
-736 -4 -750 -6z m2108 -1391 c-231 -3 -277 6 -341 71 -61 60 -67 92 -67 328
l0 204 300 -300 300 -300 -192 -3z"/>
<path d="M1497 3546 c-34 -13 -53 -25 -94 -62 -7 -7 -22 -30 -33 -52 -46 -87
-18 -221 57 -278 64 -48 91 -54 265 -54 175 0 220 11 277 63 36 33 71 115 71
167 0 52 -35 134 -71 167 -57 52 -102 63 -274 62 -109 0 -172 -4 -198 -13z"/>
<path d="M1506 2620 c-75 -23 -143 -101 -155 -178 -14 -98 20 -181 98 -235
l46 -32 760 -3 c840 -3 807 -5 875 61 94 92 91 250 -7 337 -23 20 -59 42 -81
48 -47 14 -1489 16 -1536 2z"/>
<path d="M3750 2161 c-62 -20 -111 -65 -532 -486 -384 -385 -449 -454 -462
-493 -13 -38 -16 -102 -16 -368 0 -293 2 -326 19 -366 20 -48 77 -103 127
-124 42 -18 666 -20 729 -3 34 9 108 79 488 457 269 268 457 463 469 487 27
52 29 155 3 205 -23 47 -620 646 -668 671 -43 23 -120 32 -157 20z m170 -676
l115 -115 -300 -300 -300 -300 -117 0 -118 0 0 117 0 116 298 298 c163 164
299 298 302 299 3 0 57 -52 120 -115z"/>
<path d="M1506 1690 c-75 -23 -143 -101 -155 -178 -14 -98 20 -181 98 -235
l46 -32 290 -3 c195 -2 302 0 328 8 51 15 115 75 138 128 52 121 -17 274 -139
310 -46 14 -560 15 -606 2z"/>
</g>
</svg>
