<?xml version="1.0" standalone="no"?>
<!DOCTYPE svg PUBLIC "-//W3C//DTD SVG 20010904//EN"
 "http://www.w3.org/TR/2001/REC-SVG-20010904/DTD/svg10.dtd">
<svg version="1.0" xmlns="http://www.w3.org/2000/svg"
 width="298.000000pt" height="321.000000pt" viewBox="0 0 298.000000 321.000000"
 preserveAspectRatio="xMidYMid meet">
<metadata>
Created by potrace 1.16, written by Peter Selinger 2001-2019
</metadata>
<g transform="translate(0.000000,321.000000) scale(0.100000,-0.100000)"
fill="#000000" stroke="none">
<path d="M495 3180 c-53 -24 -119 -94 -142 -150 -17 -42 -18 -85 -18 -570 l0
-525 26 -56 c32 -67 104 -129 170 -148 33 -9 275 -11 984 -9 l940 3 45 27 c56
33 92 70 122 128 l23 45 0 535 c0 524 0 536 -21 581 -26 55 -85 115 -139 140
-38 18 -88 19 -995 18 -902 0 -957 -1 -995 -19z m732 -281 c100 -48 162 -164
149 -276 -8 -65 -24 -100 -73 -154 -137 -152 -385 -99 -454 96 -38 109 -6 223
83 298 81 68 199 82 295 36z m1083 -189 l0 -50 -325 0 -325 0 0 50 0 50 325 0
325 0 0 -50z m-220 -220 l0 -50 -215 0 -215 0 0 50 0 50 215 0 215 0 0 -50z
m230 -220 l0 -50 -330 0 -330 0 0 50 0 50 330 0 330 0 0 -50z m-933 -27 c56
-30 111 -88 134 -141 15 -34 19 -68 19 -158 l0 -114 -435 0 -435 0 0 106 c0
134 12 174 73 240 79 87 107 94 377 91 212 -2 228 -3 267 -24z"/>
<path d="M319 1302 c-157 -82 -197 -291 -80 -423 110 -125 302 -126 411 -3
121 138 81 347 -82 428 -75 38 -175 37 -249 -2z"/>
<path d="M1375 1309 c-99 -49 -155 -138 -155 -248 0 -85 17 -128 76 -192 57
-60 116 -84 204 -83 133 1 248 105 266 241 14 107 -57 233 -159 282 -59 29
-175 29 -232 0z"/>
<path d="M2409 1302 c-155 -81 -196 -288 -83 -420 107 -125 297 -130 411 -10
103 108 97 291 -15 389 -57 50 -108 69 -188 69 -59 0 -81 -5 -125 -28z"/>
<path d="M235 671 c-86 -16 -160 -73 -204 -156 -20 -37 -21 -56 -21 -262 0
-210 1 -223 19 -233 13 -6 163 -10 420 -10 433 0 423 -1 437 55 10 41 -2 388
-15 429 -17 51 -90 129 -149 157 -43 21 -62 23 -247 25 -110 1 -218 -1 -240
-5z"/>
<path d="M1285 671 c-98 -19 -161 -67 -204 -153 l-31 -61 0 -208 c0 -203 0
-208 22 -223 19 -14 77 -16 425 -16 l402 0 15 22 c23 32 23 395 1 458 -23 65
-77 125 -142 157 -56 27 -61 28 -253 30 -107 1 -213 -2 -235 -6z"/>
<path d="M2325 671 c-86 -16 -163 -75 -204 -158 -19 -39 -21 -59 -21 -256 0
-195 2 -215 18 -230 17 -15 60 -17 416 -17 255 0 404 4 417 10 18 10 19 23 19
233 0 251 -5 269 -76 341 -72 71 -102 79 -329 82 -110 1 -218 -1 -240 -5z"/>
</g>
</svg>
