<?xml version="1.0" standalone="no"?>
<!DOCTYPE svg PUBLIC "-//W3C//DTD SVG 20010904//EN"
 "http://www.w3.org/TR/2001/REC-SVG-20010904/DTD/svg10.dtd">
<svg version="1.0" xmlns="http://www.w3.org/2000/svg"
 width="521.000000pt" height="479.000000pt" viewBox="0 0 521.000000 479.000000"
 preserveAspectRatio="xMidYMid meet">
<metadata>
Created by potrace 1.16, written by Peter Selinger 2001-2019
</metadata>
<g transform="translate(0.000000,479.000000) scale(0.100000,-0.100000)"
fill="#83b4ff" stroke="none">
<path d="M1542 4570 c-52 -12 -109 -56 -139 -107 -26 -45 -28 -56 -31 -185
l-4 -138 -152 0 c-175 0 -230 -11 -353 -70 -161 -76 -302 -255 -338 -428 -22
-100 -22 -2794 0 -2894 47 -225 258 -436 483 -483 56 -12 318 -15 1665 -15
1791 0 1670 -5 1822 73 142 74 252 204 316 377 l24 65 0 1435 0 1435 -28 69
c-82 206 -223 344 -420 409 -49 16 -98 22 -237 26 l-175 6 -5 146 c-5 138 -6
148 -32 187 -40 59 -106 95 -177 95 -91 0 -156 -42 -200 -130 -18 -37 -21 -60
-21 -173 l0 -130 -867 2 -868 3 -5 147 c-5 143 -6 147 -35 190 -50 70 -144
108 -223 88z m2729 -874 c54 -22 88 -54 114 -107 23 -44 25 -60 25 -179 l0
-130 -1735 0 -1735 0 0 133 c0 150 13 192 71 241 69 59 -35 55 1660 56 1326 0
1572 -2 1600 -14z m139 -1842 c0 -986 0 -996 -21 -1044 -23 -53 -81 -106 -132
-121 -45 -13 -3121 -12 -3168 1 -52 14 -124 86 -138 135 -8 28 -11 344 -11
1033 l0 992 1735 0 1735 0 0 -996z"/>
<path d="M1526 2400 c-46 -14 -91 -50 -121 -97 -37 -59 -39 -153 -5 -208 46
-74 113 -115 190 -115 116 0 210 93 210 207 0 77 -16 117 -64 161 -61 56 -135
74 -210 52z"/>
<path d="M2595 2395 c-135 -48 -178 -233 -79 -344 92 -103 257 -89 339 30 26
37 30 51 30 113 0 59 -5 78 -26 111 -35 54 -57 72 -108 90 -53 18 -103 19
-156 0z"/>
<path d="M3675 2391 c-166 -76 -180 -286 -25 -378 41 -25 66 -33 103 -33 122
0 217 96 217 217 -1 152 -159 257 -295 194z"/>
<path d="M1520 1533 c-39 -14 -94 -61 -117 -100 -19 -33 -25 -58 -26 -102 -1
-182 213 -283 351 -165 53 45 76 104 70 184 -8 112 -94 191 -207 189 -31 0
-63 -3 -71 -6z"/>
<path d="M2585 1525 c-87 -47 -132 -128 -122 -221 21 -201 278 -258 396 -87
22 32 26 49 26 109 0 60 -4 76 -27 111 -15 23 -44 54 -64 70 -31 23 -48 28
-108 31 -51 2 -79 -2 -101 -13z"/>
<path d="M3662 1519 c-66 -33 -122 -120 -122 -190 0 -45 46 -140 82 -168 38
-31 122 -53 168 -45 93 16 166 91 177 182 11 99 -40 193 -123 228 -50 21 -132
18 -182 -7z"/>
</g>
</svg>
